<svg fill="none" height="31" viewBox="0 0 148 31" width="148" xmlns="http://www.w3.org/2000/svg"><rect fill="#0d1317" height="31" rx="6" width="148"/><path d="m27.998 11.8613c-.467-2.79418-2.916-4.8613-2.916-4.8613v3.0782l-1.454.375-.911-1.09706-.481.94606c-.992-.27-2.358-.44403-4.237-.44403s-3.245.17503-4.237.44403l-.481-.94606-.911 1.09706-1.454-.375v-3.0782s-2.449 2.06712-2.916 4.8613l3.214 1.1121c.105 1.9431.979 7.1884 1.229 7.6644.266.507 1.678 1.9561 2.783 2.5131 0 0 .4-.423.644-.796.31.365 1.911 1.6451 2.13 1.6451s1.82-1.2791 2.13-1.6451c.244.373.644.796.644.796 1.105-.557 2.517-2.0061 2.783-2.5131.25-.476 1.124-5.7213 1.229-7.6644l3.214-1.1121zm-4.619 4.4742-2.175.1941.191 2.6671s-1.323 1.0951-3.396 1.0951-3.396-1.0951-3.396-1.0951l.191-2.6671-2.175-.1941-.372-3.0041 3.605 1.248-.28 3.7393c.67.17 1.375.339 2.428.339s1.757-.169 2.427-.339l-.28-3.7393 3.605-1.248-.372 3.0041z" fill="#4ff8d2"/><path d="m43.8913 14.12h-1.4403c-.0554-.3077-.1585-.5786-.3093-.8125s-.3355-.4324-.554-.5955-.4632-.2862-.734-.3693c-.2678-.0831-.5524-.1247-.8541-.1247-.5447 0-1.0325.137-1.4634.4109-.4278.2739-.7663.6756-1.0156 1.2049-.2462.5294-.3693 1.1757-.3693 1.9389 0 .7694.1231 1.4188.3693 1.9482.2493.5293.5894.9294 1.0202 1.2003.4309.2708.9156.4062 1.4542.4062.2986 0 .5817-.04.8495-.12.2708-.0831.5155-.2047.734-.3647.2185-.1601.4032-.3555.554-.5863.1538-.2339.26-.5017.3185-.8033l1.4403.0046c-.0769.4648-.2262.8926-.4478 1.2834-.2185.3878-.5001.7233-.8448 1.0064-.3416.2801-.7325.4971-1.1726.6509-.4401.1539-.9202.2309-1.4403.2309-.8187 0-1.5481-.1939-2.1882-.5817-.6402-.3909-1.1449-.9495-1.5142-1.6758-.3663-.7263-.5494-1.5927-.5494-2.5991 0-1.0094.1847-1.8758.554-2.599.3693-.7264.8741-1.2834 1.5142-1.6712.6402-.3909 1.368-.5863 2.1836-.5863.5017 0 .9695.0723 1.4034.217.437.1415.8294.3508 1.1772.6278.3478.2739.6355.6094.8633 1.0064.2277.3939.3816.8448.4616 1.3526zm1.5962 6.38v-7.0909h1.3341v1.1264h.0739c.1293-.3816.357-.6817.6832-.9002.3294-.2216.7018-.3324 1.1172-.3324.0862 0 .1878.0031.3047.0092.12.0062.2139.0139.2816.0231v1.3203c-.0554-.0153-.1539-.0323-.2954-.0507-.1416-.0216-.2832-.0324-.4247-.0324-.3263 0-.6171.0693-.8726.2078-.2523.1354-.4524.3247-.6001.5678-.1477.2401-.2216.514-.2216.8217v4.3303zm7.7914.1431c-.6986 0-1.3003-.1493-1.805-.4478-.5017-.3016-.8894-.7248-1.1634-1.2695-.2708-.5478-.4062-1.1895-.4062-1.9251 0-.7263.1354-1.3665.4062-1.9204.274-.554.6556-.9864 1.1449-1.2973.4925-.3108 1.068-.4662 1.7266-.4662.4001 0 .7879.0661 1.1633.1985.3755.1323.7125.3401 1.0111.6232.2985.2831.5339.6509.7063 1.1033.1723.4494.2585.9957.2585 1.6389v.4893h-5.6367v-1.0341h4.2841c0-.3631-.0739-.6847-.2216-.9648-.1477-.2832-.3555-.5063-.6232-.6694-.2647-.1631-.5756-.2447-.9326-.2447-.3878 0-.7263.0954-1.0156.2863-.2862.1877-.5078.4339-.6648.7386-.1539.3016-.2308.6294-.2308.9833v.8079c0 .4739.0831.8771.2493 1.2095.1693.3324.4047.5863.7063.7617.3016.1724.654.2585 1.0572.2585.2616 0 .5001-.0369.7155-.1108.2155-.0769.4017-.1908.5586-.3416.157-.1508.277-.337.3601-.5586l1.3065.2355c-.1047.3847-.2924.7217-.5632 1.011-.2678.2862-.6048.5093-1.011.6694-.4032.1569-.8633.2354-1.3804.2354zm6.6374.0139c-.4494 0-.8556-.0831-1.2188-.2493-.3631-.1693-.6509-.414-.8632-.734-.2093-.3201-.314-.7125-.314-1.1773 0-.4.077-.7294.2309-.9879.1538-.2585.3616-.4632.6232-.614s.554-.2646.8771-.3416c.3232-.0769.6525-.1354.9879-.1754.4248-.0493.7694-.0893 1.0341-.12.2647-.0339.4571-.0878.5771-.1616.12-.0739.18-.1939.18-.3601v-.0323c0-.4032-.1138-.7156-.3416-.9372-.2247-.2216-.5601-.3324-1.0064-.3324-.4647 0-.8309.1031-1.0987.3094-.2647.2031-.4478.4293-.5494.6786l-1.2972-.2955c.1539-.4309.3786-.7786.674-1.0433.2985-.2678.6417-.4617 1.0295-.5817.3878-.1231.7956-.1846 1.2234-.1846.2831 0 .5832.0338.9002.1015.32.0647.6186.1847.8956.3601.28.1754.5093.4263.6878.7525.1785.3231.2678.7432.2678 1.2603v4.7088h-1.348v-.9695h-.0554c-.0893.1785-.2232.354-.4017.5263-.1785.1724-.4078.3155-.6878.4294-.2801.1138-.6156.1708-1.0064.1708zm.3001-1.108c.3816 0 .7078-.0754.9786-.2262.274-.1508.4817-.3478.6233-.5909.1446-.2462.2169-.5094.2169-.7894v-.9141c-.0492.0493-.1446.0954-.2862.1385-.1385.04-.297.0754-.4755.1062-.1785.0277-.3524.0538-.5216.0785-.1693.0215-.3109.04-.4248.0554-.2677.0338-.5124.0908-.734.1708-.2185.08-.3939.1954-.5262.3462-.1293.1477-.1939.3447-.1939.5909 0 .3416.1261.6002.3785.7756.2524.1723.574.2585.9649.2585zm8.3477-6.1399v1.1079h-3.8732v-1.1079zm-2.8345-1.6989h1.3803v6.7078c0 .2677.04.4693.12.6047.0801.1324.1832.2232.3093.2724.1293.0462.2693.0692.4201.0692.1108 0 .2078-.0076.2909-.023s.1477-.0277.1939-.037l.2493 1.1403c-.0801.0308-.1939.0616-.3417.0923-.1477.0339-.3323.0524-.5539.0554-.3632.0062-.7017-.0584-1.0157-.1939-.3139-.1354-.5678-.3447-.7617-.6278s-.2908-.6386-.2908-1.0664zm7.3413 8.9329c-.6986 0-1.3003-.1493-1.805-.4478-.5017-.3016-.8894-.7248-1.1634-1.2695-.2708-.5478-.4062-1.1895-.4062-1.9251 0-.7263.1354-1.3665.4062-1.9204.274-.554.6556-.9864 1.1449-1.2973.4924-.3108 1.068-.4662 1.7266-.4662.4001 0 .7879.0661 1.1633.1985.3755.1323.7125.3401 1.011.6232.2986.2831.534.6509.7064 1.1033.1723.4494.2585.9957.2585 1.6389v.4893h-5.6367v-1.0341h4.2841c0-.3631-.0739-.6847-.2216-.9648-.1478-.2832-.3555-.5063-.6233-.6694-.2646-.1631-.5755-.2447-.9325-.2447-.3878 0-.7263.0954-1.0156.2863-.2862.1877-.5078.4339-.6648.7386-.1539.3016-.2308.6294-.2308.9833v.8079c0 .4739.0831.8771.2493 1.2095.1693.3324.4047.5863.7063.7617.3016.1724.654.2585 1.0572.2585.2616 0 .5001-.0369.7155-.1108.2155-.0769.4017-.1908.5586-.3416.157-.1508.277-.337.3601-.5586l1.3065.2355c-.1047.3847-.2924.7217-.5632 1.011-.2678.2862-.6048.5093-1.011.6694-.4032.1569-.8633.2354-1.3804.2354zm11.1858-.1431h-3.0608v-9.4545h3.1577c.9264 0 1.722.1892 2.3867.5678.6648.3755 1.1741.9156 1.5281 1.6204.357.7017.5355 1.5434.5355 2.5252 0 .9848-.1801 1.8312-.5401 2.539-.357.7079-.8741 1.2526-1.5512 1.6343-.6771.3785-1.4957.5678-2.4559.5678zm-1.6343-1.2464h1.5558c.7201 0 1.3188-.1355 1.7958-.4063.477-.2739.834-.6694 1.071-1.1864.237-.5202.3555-1.1542.3555-1.902 0-.7417-.1185-1.3711-.3555-1.8882-.2339-.517-.5832-.9094-1.0479-1.1772-.4648-.2677-1.0418-.4016-1.7312-.4016h-1.6435zm9.9081 1.4034c-.4493 0-.8555-.0831-1.2187-.2493-.3632-.1693-.6509-.414-.8633-.734-.2093-.3201-.3139-.7125-.3139-1.1773 0-.4.0769-.7294.2308-.9879s.3616-.4632.6232-.614.554-.2646.8772-.3416c.3231-.0769.6524-.1354.9879-.1754.4247-.0493.7694-.0893 1.0341-.12.2647-.0339.457-.0878.577-.1616.1201-.0739.1801-.1939.1801-.3601v-.0323c0-.4032-.1139-.7156-.3416-.9372-.2247-.2216-.5602-.3324-1.0064-.3324-.4648 0-.831.1031-1.0987.3094-.2647.2031-.4478.4293-.5494.6786l-1.2972-.2955c.1538-.4309.3785-.7786.674-1.0433.2985-.2678.6417-.4617 1.0294-.5817.3878-.1231.7956-.1846 1.2234-.1846.2832 0 .5832.0338.9002.1015.3201.0647.6186.1847.8956.3601.2801.1754.5094.4263.6879.7525.1785.3231.2677.7432.2677 1.2603v4.7088h-1.348v-.9695h-.0554c-.0892.1785-.2231.354-.4016.5263-.1785.1724-.4078.3155-.6879.4294-.28.1138-.6155.1708-1.0064.1708zm.3001-1.108c.3816 0 .7079-.0754.9787-.2262.2739-.1508.4817-.3478.6232-.5909.1447-.2462.217-.5094.217-.7894v-.9141c-.0492.0493-.1446.0954-.2862.1385-.1385.04-.297.0754-.4755.1062-.1785.0277-.3524.0538-.5217.0785-.1692.0215-.3108.04-.4247.0554-.2677.0338-.5124.0908-.734.1708-.2185.08-.394.1954-.5263.3462-.1293.1477-.1939.3447-.1939.5909 0 .3416.1262.6002.3786.7756.2523.1723.5739.2585.9648.2585zm8.3474-6.1399v1.1079h-3.8729v-1.1079zm-2.8342-1.6989h1.3804v6.7078c0 .2677.04.4693.12.6047.08.1324.1828.2232.3088.2724.13.0462.27.0692.421.0692.11 0 .207-.0076.29-.023.084-.0154.148-.0277.194-.037l.25 1.1403c-.08.0308-.194.0616-.342.0923-.148.0339-.332.0524-.554.0554-.363.0062-.7017-.0584-1.0156-.1939-.3139-.1354-.5678-.3447-.7617-.6278s-.2909-.6386-.2909-1.0664zm6.4252 8.9468c-.45 0-.856-.0831-1.219-.2493-.363-.1693-.651-.414-.863-.734-.209-.3201-.314-.7125-.314-1.1773 0-.4.077-.7294.231-.9879s.361-.4632.623-.614.554-.2646.877-.3416c.323-.0769.653-.1354.988-.1754.425-.0493.769-.0893 1.034-.12.265-.0339.457-.0878.577-.1616.12-.0739.18-.1939.18-.3601v-.0323c0-.4032-.114-.7156-.341-.9372-.225-.2216-.561-.3324-1.007-.3324-.465 0-.831.1031-1.099.3094-.264.2031-.447.4293-.549.6786l-1.297-.2955c.154-.4309.378-.7786.674-1.0433.298-.2678.642-.4617 1.029-.5817.388-.1231.796-.1846 1.224-.1846.283 0 .583.0338.9.1015.32.0647.619.1847.895.3601.281.1754.51.4263.688.7525.179.3231.268.7432.268 1.2603v4.7088h-1.348v-.9695h-.055c-.09.1785-.223.354-.402.5263-.178.1724-.408.3155-.688.4294-.28.1138-.615.1708-1.006.1708zm.3-1.108c.382 0 .708-.0754.979-.2262.273-.1508.481-.3478.623-.5909.144-.2462.217-.5094.217-.7894v-.9141c-.049.0493-.145.0954-.286.1385-.139.04-.297.0754-.476.1062-.178.0277-.352.0538-.522.0785-.169.0215-.31.04-.424.0554-.268.0338-.513.0908-.734.1708-.219.08-.394.1954-.527.3462-.129.1477-.194.3447-.194.5909 0 .3416.127.6002.379.7756.252.1723.574.2585.965.2585zm5.148.951v-9.4545h1.381v3.5131h.083c.08-.1477.195-.3185.346-.5124s.36-.3632.628-.5078c.268-.1478.622-.2216 1.062-.2216.572 0 1.083.1446 1.532.4339.45.2893.802.7063 1.058 1.2511.258.5447.387 1.2003.387 1.9666s-.127 1.4234-.383 1.9712c-.255.5448-.606.9649-1.052 1.2603-.447.2924-.956.4386-1.528.4386-.431 0-.784-.0723-1.058-.217-.27-.1446-.483-.3139-.637-.5078s-.272-.3662-.355-.517h-.116v1.1033zm1.353-3.5455c0 .4986.072.9357.217 1.3111.145.3755.354.6694.628.8818.274.2093.609.3139 1.006.3139.413 0 .757-.1093 1.034-.3278.277-.2216.487-.5216.628-.9002.145-.3785.217-.8048.217-1.2788 0-.4678-.071-.8879-.212-1.2603-.139-.3723-.348-.6663-.628-.8817-.277-.2154-.623-.3232-1.039-.3232-.4 0-.738.1031-1.015.3094-.274.2062-.482.4939-.624.8632-.141.3693-.212.8002-.212 1.2926zm8.738 3.7025c-.449 0-.856-.0831-1.219-.2493-.363-.1693-.651-.414-.863-.734-.209-.3201-.314-.7125-.314-1.1773 0-.4.077-.7294.231-.9879s.361-.4632.623-.614.554-.2646.877-.3416c.323-.0769.653-.1354.988-.1754.425-.0493.769-.0893 1.034-.12.265-.0339.457-.0878.577-.1616.12-.0739.18-.1939.18-.3601v-.0323c0-.4032-.114-.7156-.341-.9372-.225-.2216-.561-.3324-1.007-.3324-.465 0-.831.1031-1.099.3094-.264.2031-.447.4293-.549.6786l-1.297-.2955c.154-.4309.378-.7786.674-1.0433.298-.2678.642-.4617 1.029-.5817.388-.1231.796-.1846 1.224-.1846.283 0 .583.0338.9.1015.32.0647.619.1847.896.3601.28.1754.509.4263.687.7525.179.3231.268.7432.268 1.2603v4.7088h-1.348v-.9695h-.055c-.089.1785-.223.354-.402.5263-.178.1724-.408.3155-.688.4294-.28.1138-.615.1708-1.006.1708zm.3-1.108c.382 0 .708-.0754.979-.2262.274-.1508.481-.3478.623-.5909.145-.2462.217-.5094.217-.7894v-.9141c-.049.0493-.145.0954-.286.1385-.139.04-.297.0754-.476.1062-.178.0277-.352.0538-.522.0785-.169.0215-.31.04-.424.0554-.268.0338-.513.0908-.734.1708-.219.08-.394.1954-.527.3462-.129.1477-.193.3447-.193.5909 0 .3416.126.6002.378.7756.252.1723.574.2585.965.2585zm10.351-4.4087-1.251.2216c-.052-.1601-.135-.3124-.249-.4571-.111-.1446-.262-.2631-.453-.3554-.19-.0924-.429-.1385-.715-.1385-.391 0-.717.0877-.979.2631-.261.1724-.392.3955-.392.6694 0 .237.088.4278.263.5724.175.1447.459.2632.849.3555l1.127.2585c.652.1508 1.139.3832 1.459.6971s.48.7217.48 1.2234c0 .4247-.123.8033-.37 1.1356-.243.3293-.583.5879-1.02.7756-.434.1877-.937.2816-1.509.2816-.794 0-1.442-.1693-1.944-.5078-.502-.3416-.809-.8264-.923-1.4542l1.334-.2031c.083.3478.254.6109.512.7894.259.1754.596.2631 1.011.2631.453 0 .814-.0938 1.085-.2816.271-.1908.406-.4231.406-.6971 0-.2215-.083-.4077-.249-.5585-.163-.1509-.414-.2647-.752-.3417l-1.201-.2631c-.661-.1508-1.151-.3909-1.468-.7202-.314-.3293-.47-.7463-.47-1.251 0-.4186.116-.7848.35-1.0988.234-.3139.557-.5586.97-.734.412-.1785.885-.2677 1.417-.2677.766 0 1.37.1662 1.81.4985.44.3293.731.771.872 1.325zm4.713 5.5028c-.699 0-1.301-.1493-1.806-.4478-.501-.3016-.889-.7248-1.163-1.2695-.271-.5478-.406-1.1895-.406-1.9251 0-.7263.135-1.3665.406-1.9204.274-.554.656-.9864 1.145-1.2973.492-.3108 1.068-.4662 1.727-.4662.4 0 .787.0661 1.163.1985.375.1323.712.3401 1.011.6232.298.2831.534.6509.706 1.1033.173.4494.259.9957.259 1.6389v.4893h-5.637v-1.0341h4.284c0-.3631-.074-.6847-.221-.9648-.148-.2832-.356-.5063-.624-.6694-.264-.1631-.575-.2447-.932-.2447-.388 0-.727.0954-1.016.2863-.286.1877-.508.4339-.665.7386-.153.3016-.23.6294-.23.9833v.8079c0 .4739.083.8771.249 1.2095.169.3324.405.5863.706.7617.302.1724.654.2585 1.057.2585.262 0 .5-.0369.716-.1108.215-.0769.402-.1908.559-.3416.156-.1508.277-.337.36-.5586l1.306.2355c-.105.3847-.292.7217-.563 1.011-.268.2862-.605.5093-1.011.6694-.403.1569-.863.2354-1.38.2354z" fill="#fff"/></svg>
