<svg fill="none" height="31" viewBox="0 0 149 31" width="149" xmlns="http://www.w3.org/2000/svg" xmlns:xlink="http://www.w3.org/1999/xlink"><linearGradient id="a" gradientUnits="userSpaceOnUse" x1="74.5" x2="74.5" y1="0" y2="31"><stop offset="0" stop-color="#4b997f"/><stop offset="1" stop-color="#183840"/></linearGradient><rect fill="url(#a)" height="31" rx="6" width="149"/><g fill="#fff"><path d="m27.998 11.8613c-.467-2.79418-2.916-4.8613-2.916-4.8613v3.0782l-1.454.375-.911-1.09706-.481.94606c-.992-.27-2.358-.44403-4.237-.44403s-3.245.17503-4.237.44403l-.481-.94606-.911 1.09706-1.454-.375v-3.0782s-2.449 2.06712-2.916 4.8613l3.214 1.1121c.105 1.9431.979 7.1884 1.229 7.6644.266.507 1.678 1.9561 2.783 2.5131 0 0 .4-.423.644-.796.31.365 1.911 1.6451 2.13 1.6451s1.82-1.2791 2.13-1.6451c.244.373.644.796.644.796 1.105-.557 2.517-2.0061 2.783-2.5131.25-.476 1.124-5.7213 1.229-7.6644l3.214-1.1121zm-4.619 4.4742-2.175.1941.191 2.6671s-1.323 1.0951-3.396 1.0951-3.396-1.0951-3.396-1.0951l.191-2.6671-2.175-.1941-.372-3.0041 3.605 1.248-.28 3.7393c.67.17 1.375.339 2.428.339s1.757-.169 2.427-.339l-.28-3.7393 3.605-1.248-.372 3.0041z"/><path d="m44.0252 14.2354h-1.7265c-.0493-.2831-.1401-.5339-.2724-.7524-.1324-.2216-.297-.4094-.494-.5633-.197-.1538-.4216-.2693-.674-.3462-.2493-.08-.5186-.12-.8079-.12-.5139 0-.9694.1292-1.3665.3878-.397.2554-.7078.6309-.9325 1.1264-.2246.4924-.337 1.0941-.337 1.805 0 .7233.1124 1.3327.337 1.8282.2278.4924.5386.8648.9325 1.1171.3971.2493.851.374 1.3619.374.2832 0 .5478-.037.794-.1108.2493-.077.4725-.1893.6694-.337.2001-.1478.3678-.3293.5032-.5448.1385-.2154.2339-.4616.2863-.7386l1.7265.0092c-.0646.4494-.2047.871-.4201 1.2649-.2123.394-.4909.7418-.8356 1.0434-.3447.2985-.7478.5324-1.2095.7017-.4616.1662-.9741.2493-1.5373.2493-.8309 0-1.5727-.1924-2.2251-.5771-.6525-.3847-1.1664-.9402-1.5419-1.6665-.3755-.7264-.5632-1.5973-.5632-2.613 0-1.0187.1892-1.8897.5678-2.6129.3785-.7263.8941-1.2818 1.5465-1.6665.6525-.3848 1.3911-.5771 2.2159-.5771.5263 0 1.0157.0739 1.4681.2216s.8556.3647 1.2095.6509c.3539.2832.6448.6309.8725 1.0433.2308.4094.3816.8772.4524 1.4034zm1.4946 6.2646v-7.0909h1.6204v1.1818h.0738c.1293-.4093.3509-.7248.6648-.9464.317-.2246.6786-.337 1.0849-.337.0923 0 .1954.0046.3093.0139.1169.0061.2139.0169.2908.0323v1.5373c-.0708-.0246-.1831-.0462-.337-.0647-.1508-.0215-.297-.0323-.4385-.0323-.3047 0-.5786.0662-.8218.1985-.24.1293-.4293.3093-.5678.5402-.1385.2308-.2077.497-.2077.7986v4.1687zm8.0015.1385c-.7109 0-1.3249-.1477-1.842-.4432-.5139-.2985-.9094-.7202-1.1864-1.2649-.277-.5478-.4155-1.1926-.4155-1.9343 0-.7294.1385-1.3696.4155-1.9205.2801-.5539.6709-.9848 1.1726-1.2926.5016-.3108 1.091-.4662 1.7681-.4662.437 0 .8494.0707 1.2372.2123.3909.1385.7356.3539 1.0341.6463.3016.2924.5386.6648.7109 1.1172.1724.4494.2586.9849.2586 1.6065v.5125h-5.8122v-1.1264h4.2102c-.003-.3201-.0723-.6048-.2077-.8541-.1354-.2524-.3247-.4509-.5678-.5955-.2401-.1447-.5201-.217-.8402-.217-.3416 0-.6417.0831-.9002.2493-.2586.1631-.4601.3785-.6048.6463-.1416.2647-.2139.5555-.217.8725v.9833c0 .4124.0754.7664.2262 1.0618.1508.2924.3617.5171.6325.674.2708.1539.5878.2308.951.2308.2431 0 .4632-.0338.6601-.1015.197-.0708.3678-.1739.5125-.3093.1446-.1354.2539-.3032.3277-.5032l1.5604.1754c-.0985.4124-.2862.7725-.5632 1.0803-.2739.3047-.6248.5416-1.0526.7109-.4277.1662-.9171.2493-1.468.2493zm6.6073.0046c-.4493 0-.854-.08-1.2141-.24-.357-.1632-.6401-.4032-.8494-.7202-.2062-.317-.3093-.7079-.3093-1.1726 0-.4001.0738-.7309.2216-.9925.1477-.2616.3493-.4709.6047-.6279.2555-.1569.5432-.2754.8633-.3555.3232-.0831.6571-.1431 1.0018-.18.4155-.0431.7525-.0816 1.011-.1154.2585-.0369.4462-.0923.5632-.1662.12-.0769.18-.1954.18-.3555v-.0277c0-.3477-.1031-.617-.3093-.8079-.2062-.1908-.5032-.2862-.8909-.2862-.4094 0-.7341.0893-.9741.2678-.237.1785-.397.3893-.4801.6324l-1.5604-.2216c.1231-.4308.3262-.7909.6094-1.0802.2831-.2924.6293-.5109 1.0387-.6555.4093-.1478.8617-.2216 1.3572-.2216.3416 0 .6817.04 1.0203.12.3385.08.6478.2123.9279.397.28.1816.5047.4293.674.7433.1723.3139.2585.7063.2585 1.1772v4.7457h-1.6065v-.9741h-.0554c-.1016.197-.2447.3817-.4294.554-.1815.1693-.4108.3062-.6878.4109-.2739.1015-.5955.1523-.9649.1523zm.434-1.228c.3355 0 .6263-.0661.8725-.1985.2462-.1354.4355-.3139.5678-.5355.1354-.2216.2032-.4632.2032-.7248v-.8356c-.0524.0431-.1416.0831-.2678.1201-.1231.0369-.2616.0692-.4155.0969s-.3062.0523-.457.0739c-.1508.0215-.2816.04-.3924.0554-.2493.0338-.4724.0892-.6694.1662-.197.0769-.3524.1846-.4663.3231-.1138.1354-.1708.3109-.1708.5263 0 .3078.1124.5401.337.6971.2247.1569.5109.2354.8587.2354zm8.5312-6.006v1.2926h-4.0763v-1.2926zm-3.0699-1.6989h1.6711v6.657c0 .2247.0339.397.1016.517.0708.117.1631.197.277.2401s.2401.0646.3785.0646c.1047 0 .2001-.0077.2863-.0231.0892-.0154.1569-.0292.2031-.0415l.2816 1.3065c-.0893.0307-.217.0646-.3832.1015-.1631.0369-.3631.0585-.6001.0646-.4186.0124-.7956-.0507-1.131-.1892-.3355-.1416-.6017-.3601-.7987-.6556-.1939-.2954-.2893-.6647-.2862-1.1079zm7.5306 8.9283c-.7109 0-1.3249-.1477-1.842-.4432-.5139-.2985-.9094-.7202-1.1864-1.2649-.277-.5478-.4155-1.1926-.4155-1.9343 0-.7294.1385-1.3696.4155-1.9205.2801-.5539.6709-.9848 1.1726-1.2926.5016-.3108 1.091-.4662 1.7681-.4662.437 0 .8494.0707 1.2372.2123.3909.1385.7356.3539 1.0341.6463.3016.2924.5386.6648.7109 1.1172.1724.4494.2586.9849.2586 1.6065v.5125h-5.8122v-1.1264h4.2102c-.003-.3201-.0723-.6048-.2077-.8541-.1354-.2524-.3247-.4509-.5678-.5955-.2401-.1447-.5201-.217-.8402-.217-.3416 0-.6417.0831-.9002.2493-.2586.1631-.4601.3785-.6048.6463-.1416.2647-.2139.5555-.217.8725v.9833c0 .4124.0754.7664.2262 1.0618.1508.2924.3617.5171.6325.674.2708.1539.5878.2308.951.2308.2431 0 .4632-.0338.6601-.1015.197-.0708.3678-.1739.5125-.3093.1446-.1354.2539-.3032.3277-.5032l1.5604.1754c-.0985.4124-.2862.7725-.5632 1.0803-.2739.3047-.6248.5416-1.0526.7109-.4277.1662-.9171.2493-1.468.2493zm11.0692-.1385h-3.2039v-9.4545h3.2685c.9387 0 1.745.1892 2.419.5678.6771.3755 1.1972.9156 1.5604 1.6204.3632.7047.5447 1.548.5447 2.5298 0 .9848-.1831 1.8312-.5493 2.5391-.3632.7078-.8879 1.251-1.5742 1.6296-.6833.3785-1.505.5678-2.4652.5678zm-1.4912-1.4819h1.4081c.6586 0 1.2079-.12 1.6481-.3601.4401-.2431.7709-.6047.9925-1.0848.2216-.4832.3324-1.0865.3324-1.8097 0-.7233-.1108-1.3234-.3324-1.8004-.2216-.4801-.5494-.8387-.9833-1.0757-.4309-.24-.9664-.3601-1.6065-.3601h-1.4589zm9.6739 1.625c-.4494 0-.8541-.08-1.2142-.24-.357-.1632-.6401-.4032-.8494-.7202-.2062-.317-.3093-.7079-.3093-1.1726 0-.4001.0739-.7309.2216-.9925s.3493-.4709.6048-.6279c.2554-.1569.5432-.2754.8632-.3555.3232-.0831.6571-.1431 1.0018-.18.4155-.0431.7525-.0816 1.011-.1154.2585-.0369.4463-.0923.5632-.1662.1201-.0769.1801-.1954.1801-.3555v-.0277c0-.3477-.1031-.617-.3093-.8079-.2062-.1908-.5032-.2862-.891-.2862-.4093 0-.734.0893-.9741.2678-.237.1785-.397.3893-.4801.6324l-1.5604-.2216c.1231-.4308.3263-.7909.6094-1.0802.2831-.2924.6294-.5109 1.0387-.6555.4093-.1478.8618-.2216 1.3573-.2216.3416 0 .6817.04 1.0202.12s.6478.2123.9279.397c.2801.1816.5047.4293.674.7433.1724.3139.2585.7063.2585 1.1772v4.7457h-1.6065v-.9741h-.0554c-.1016.197-.2447.3817-.4293.554-.1816.1693-.4109.3062-.6879.4109-.2739.1015-.5955.1523-.9648.1523zm.4339-1.228c.3355 0 .6263-.0661.8725-.1985.2462-.1354.4355-.3139.5679-.5355.1354-.2216.2031-.4632.2031-.7248v-.8356c-.0523.0431-.1416.0831-.2678.1201-.1231.0369-.2616.0692-.4154.0969-.1539.0277-.3063.0523-.4571.0739-.1508.0215-.2816.04-.3924.0554-.2493.0338-.4724.0892-.6694.1662-.1969.0769-.3524.1846-.4662.3231-.1139.1354-.1708.3109-.1708.5263 0 .3078.1123.5401.337.6971.2246.1569.5108.2354.8586.2354zm8.5317-6.006v1.2926h-4.0768v-1.2926zm-3.0704-1.6989h1.6714v6.657c0 .2247.034.397.101.517.071.117.163.197.277.2401s.24.0646.379.0646c.105 0 .2-.0077.286-.0231.089-.0154.157-.0292.203-.0415l.282 1.3065c-.089.0307-.217.0646-.383.1015-.163.0369-.363.0585-.6.0646-.419.0124-.796-.0507-1.1315-.1892-.3355-.1416-.6017-.3601-.7987-.6556-.1939-.2954-.2893-.6647-.2862-1.1079zm6.5084 8.9329c-.45 0-.854-.08-1.214-.24-.357-.1632-.641-.4032-.85-.7202-.206-.317-.309-.7079-.309-1.1726 0-.4001.074-.7309.221-.9925.148-.2616.35-.4709.605-.6279.256-.1569.543-.2754.863-.3555.324-.0831.658-.1431 1.002-.18.416-.0431.753-.0816 1.011-.1154.259-.0369.446-.0923.563-.1662.12-.0769.18-.1954.18-.3555v-.0277c0-.3477-.103-.617-.309-.8079-.206-.1908-.503-.2862-.891-.2862-.409 0-.734.0893-.974.2678-.237.1785-.397.3893-.48.6324l-1.56-.2216c.123-.4308.326-.7909.609-1.0802.283-.2924.629-.5109 1.039-.6555.409-.1478.861-.2216 1.357-.2216.342 0 .682.04 1.02.12.339.08.648.2123.928.397.28.1816.505.4293.674.7433.172.3139.259.7063.259 1.1772v4.7457h-1.607v-.9741h-.055c-.102.197-.245.3817-.43.554-.181.1693-.41.3062-.687.4109-.274.1015-.596.1523-.965.1523zm.434-1.228c.335 0 .626-.0661.872-.1985.246-.1354.436-.3139.568-.5355.135-.2216.203-.4632.203-.7248v-.8356c-.052.0431-.141.0831-.268.1201-.123.0369-.261.0692-.415.0969s-.306.0523-.457.0739c-.151.0215-.282.04-.393.0554-.249.0338-.472.0892-.669.1662-.197.0769-.352.1846-.466.3231-.114.1354-.171.3109-.171.5263 0 .3078.112.5401.337.6971.225.1569.511.2354.859.2354zm5.064 1.0849v-9.4545h1.671v3.5362h.069c.087-.1724.208-.3555.365-.5494.157-.197.369-.3647.637-.5032.268-.1416.609-.2123 1.025-.2123.548 0 1.042.14 1.482.4201.443.2769.794.6878 1.052 1.2326.262.5416.393 1.2064.393 1.9943 0 .7786-.128 1.4403-.383 1.9851-.256.5447-.604.9602-1.044 1.2464s-.938.4293-1.495.4293c-.407 0-.744-.0677-1.011-.2031-.268-.1354-.484-.2985-.647-.4893-.16-.1939-.284-.377-.374-.5494h-.097v1.1172zm1.639-3.5455c0 .4586.064.8602.194 1.2049.132.3447.321.614.567.8079.25.1908.551.2863.905.2863.37 0 .679-.0985.928-.2955.25-.2001.437-.4724.563-.8171.13-.3478.194-.7433.194-1.1865 0-.4401-.063-.8309-.189-1.1725-.126-.3417-.314-.6094-.563-.8033s-.56-.2908-.933-.2908c-.357 0-.66.0938-.909.2816-.249.1877-.439.4508-.568.7894-.126.3385-.189.7371-.189 1.1956zm8.516 3.6886c-.449 0-.854-.08-1.214-.24-.357-.1632-.64-.4032-.85-.7202-.206-.317-.309-.7079-.309-1.1726 0-.4001.074-.7309.222-.9925.147-.2616.349-.4709.604-.6279.256-.1569.544-.2754.864-.3555.323-.0831.657-.1431 1.002-.18.415-.0431.752-.0816 1.011-.1154.258-.0369.446-.0923.563-.1662.12-.0769.18-.1954.18-.3555v-.0277c0-.3477-.103-.617-.309-.8079-.207-.1908-.504-.2862-.891-.2862-.41 0-.734.0893-.975.2678-.237.1785-.397.3893-.48.6324l-1.56-.2216c.123-.4308.326-.7909.609-1.0802.283-.2924.63-.5109 1.039-.6555.409-.1478.862-.2216 1.357-.2216.342 0 .682.04 1.021.12.338.08.647.2123.927.397.281.1816.505.4293.674.7433.173.3139.259.7063.259 1.1772v4.7457h-1.607v-.9741h-.055c-.102.197-.245.3817-.429.554-.182.1693-.411.3062-.688.4109-.274.1015-.596.1523-.965.1523zm.434-1.228c.335 0 .626-.0661.872-.1985.247-.1354.436-.3139.568-.5355.136-.2216.203-.4632.203-.7248v-.8356c-.052.0431-.141.0831-.267.1201-.123.0369-.262.0692-.416.0969s-.306.0523-.457.0739c-.151.0215-.281.04-.392.0554-.25.0338-.473.0892-.67.1662-.197.0769-.352.1846-.466.3231-.114.1354-.171.3109-.171.5263 0 .3078.113.5401.337.6971.225.1569.511.2354.859.2354zm10.595-4.1317-1.524.1662c-.043-.1539-.118-.2986-.226-.434-.105-.1354-.246-.2446-.425-.3277-.178-.0831-.397-.1247-.655-.1247-.348 0-.64.0754-.877.2262-.234.1508-.35.3463-.346.5863-.004.2062.072.3739.226.5032.157.1293.415.2354.775.3185l1.21.2586c.671.1446 1.169.3739 1.496.6878.329.3139.495.7248.498 1.2326-.003.4463-.134.8402-.392 1.1818-.256.3386-.611.6033-1.067.7941-.455.1908-.978.2862-1.569.2862-.868 0-1.567-.1816-2.096-.5447-.53-.3663-.845-.8756-.947-1.5281l1.63-.157c.074.3201.231.5617.471.7248s.552.2447.937.2447c.397 0 .716-.0816.956-.2447.243-.1631.364-.3647.364-.6047 0-.2032-.078-.3709-.235-.5032-.154-.1324-.394-.2339-.72-.3047l-1.21-.2539c-.68-.1416-1.183-.3801-1.509-.7156-.327-.3385-.488-.7663-.485-1.2834-.003-.437.115-.8155.355-1.1356.244-.3232.581-.5725 1.011-.7479.434-.1785.935-.2677 1.501-.2677.831 0 1.485.1769 1.962.5309.48.3539.777.8325.891 1.4357zm4.669 5.3551c-.711 0-1.325-.1477-1.842-.4432-.514-.2985-.909-.7202-1.186-1.2649-.277-.5478-.416-1.1926-.416-1.9343 0-.7294.139-1.3696.416-1.9205.28-.5539.671-.9848 1.173-1.2926.501-.3108 1.091-.4662 1.768-.4662.437 0 .849.0707 1.237.2123.391.1385.735.3539 1.034.6463.302.2924.539.6648.711 1.1172.172.4494.258.9849.258 1.6065v.5125h-5.812v-1.1264h4.21c-.003-.3201-.072-.6048-.207-.8541-.136-.2524-.325-.4509-.568-.5955-.24-.1447-.52-.217-.84-.217-.342 0-.642.0831-.9.2493-.259.1631-.461.3785-.605.6463-.142.2647-.214.5555-.217.8725v.9833c0 .4124.075.7664.226 1.0618.151.2924.362.5171.632.674.271.1539.588.2308.951.2308.244 0 .464-.0338.661-.1015.197-.0708.367-.1739.512-.3093s.254-.3032.328-.5032l1.56.1754c-.098.4124-.286.7725-.563 1.0803-.274.3047-.625.5416-1.053.7109-.427.1662-.917.2493-1.468.2493z"/></g></svg>
